2010.06.26-F1.09.Spain.Qualifying.BBC1_UK-TDMK1.m4v

Jake Humphrey presents live coverage, as the drivers compete for places at the front of the grid on the Valencia Street Circuit. Lewis Hamilton will arrive in Spain high on confidence following back-to-back victories in Turkey and Canada. Last year he pipped his then McLaren team-mate Heikki Kovalainen to pole position in 2009, but had to settle for second place in the race, with Rubens Barrichello taking the chequered flag for Brawn. Commentary by Jonathan Legard and Martin Brundle.

Now encoded as 'MP4 All Play'... As a departure from the DivX files which I have uploaded in the past, I've made the decision to get with the 21st century & start encoding with the following specs this year;

MP4 - 640x352 - 800Kb/s H264 Video - 44.1KHz/128Kbps Stereo AAC Audio

My belief is this is the best all round setup, and hopefully you will agree!

This video will play on a computer with VLC, XBMC, XBox360, PS3, iPad all iPhones - enjoy the show... :)

General
Complete name                    : 2010.06.26-F1.09.Spain.Qualifying.BBC1_UK-TDMK1.m4v
Format                           : MPEG-4
Format profile                   : Base Media / Version 2
Codec ID                         : mp42
File size                        : 923 MiB
Duration                         : 2h 18mn
Overall bit rate                 : 932 Kbps
Encoded date                     : UTC 2010-06-26 14:31:09
Tagged date                      : UTC 2010-06-26 16:59:19
Writing application              : HandBrake 0.9.4 2009112300

Video
ID                               : 1
Format                           : AVC
Format/Info                      : Advanced Video Codec
Format profile                   : Main@L3.0
Format settings, CABAC           : Yes
Format settings, ReFrames        : 2 frames
Codec ID                         : avc1
Codec ID/Info                    : Advanced Video Coding
Duration                         : 2h 18mn
Bit rate mode                    : Variable
Bit rate                         : 800 Kbps
Width                            : 640 pixels
Height                           : 352 pixels
Display aspect ratio             : 16:9
Frame rate mode                  : Variable
Frame rate                       : 25.000 fps
Minimum frame rate               : 12.498 fps
Maximum frame rate               : 25.000 fps
Color space                      : YUV
Chroma subsampling               : 4:2:0
Bit depth                        : 8 bits
Scan type                        : Progressive
Bits/(Pixel*Frame)               : 0.142
Stream size                      : 792 MiB (86%)
Writing library                  : x264 core 79
Encoding settings                : cabac=1 / ref=2 / deblock=1:0:0 / analyse=0x1:0x111 / me=hex / subme=6 / psy=1 / psy_rd=1.0:0.0 / mixed_ref=0 / me_range=16 / chroma_me=1 / trellis=0 / 8x8dct=0 / cqm=0 / deadzone=21,11 / chroma_qp_offset=-2 / threads=6 / nr=0 / decimate=1 / mbaff=0 / constrained_intra=0 / bframes=2 / b_pyramid=0 / b_adapt=1 / b_bias=0 / direct=1 / wpredb=0 / wpredp=2 / keyint=250 / keyint_min=25 / scenecut=40 / rc_lookahead=40 / rc=abr / mbtree=1 / bitrate=800 / ratetol=1.0 / qcomp=0.60 / qpmin=10 / qpmax=51 / qpstep=4 / ip_ratio=1.40 / aq=1:1.00
Encoded date                     : UTC 2010-06-26 14:31:09
Tagged date                      : UTC 2010-06-26 16:59:19
Color primaries                  : BT.601-6 525, BT.1358 525, BT.1700 NTSC, SMPTE 170M
Transfer characteristics         : BT.709-5, BT.1361
Matrix coefficients              : BT.601-6 525, BT.1358 525, BT.1700 NTSC, SMPTE 170M

Audio
ID                               : 2
Format                           : AAC
Format/Info                      : Advanced Audio Codec
Format version                   : Version 4
Format profile                   : LC
Format settings, SBR             : No
Codec ID                         : 40
Duration                         : 2h 18mn
Bit rate mode                    : Variable
Bit rate                         : 128 Kbps
Maximum bit rate                 : 204 Kbps
Channel(s)                       : 2 channels
Channel positions                : Front: L R
Sampling rate                    : 44.1 KHz
Stream size                      : 127 MiB (14%)
Encoded date                     : UTC 2010-06-26 14:31:09
Tagged date                      : UTC 2010-06-26 16:59:17

